<svg width="190" height="220" viewBox="0 0 190 220" fill="none" xmlns="http://www.w3.org/2000/svg">
<g clip-path="url(#clip0_178_402)">
<rect x="48.6562" y="-0.000244141" width="146" height="188" rx="10" transform="rotate(15 48.6562 -0.000244141)" fill="#161C28"/>
<circle cx="8.75206" cy="163.755" r="79" transform="rotate(15 8.75206 163.755)" fill="#232937"/>
<circle cx="202.92" cy="46.9469" r="79" transform="rotate(15 202.92 46.9469)" fill="#232937"/>
<circle opacity="0.5" cx="84.0948" cy="34.1522" r="14" transform="rotate(15 84.0948 34.1522)" fill="white"/>
<circle opacity="0.5" cx="68.0284" cy="29.8473" r="14" transform="rotate(15 68.0284 29.8473)" fill="white"/>
<path d="M46.4505 78.0895L45.4297 77.8159C45.448 77.5061 45.4115 77.2199 45.3201 76.9572C45.2315 76.6952 45.1004 76.4601 44.9268 76.2518C44.7567 76.0415 44.5529 75.8634 44.3156 75.7174C44.0782 75.5715 43.8196 75.461 43.5397 75.386C43.0293 75.2492 42.5324 75.2543 42.0489 75.4012C41.5681 75.5489 41.1384 75.8411 40.7596 76.2778C40.3836 76.7153 40.0978 77.299 39.9022 78.0289C39.7066 78.7588 39.6623 79.4072 39.7692 79.9741C39.8789 80.5417 40.1049 81.0097 40.4474 81.3779C40.7927 81.7469 41.2205 81.9997 41.7309 82.1365C42.0108 82.2115 42.29 82.2451 42.5686 82.2374C42.8471 82.2297 43.1122 82.1787 43.364 82.0844C43.6192 81.9881 43.8507 81.8486 44.0584 81.6661C44.2696 81.4815 44.4444 81.2518 44.5827 80.9771L45.6035 81.2507C45.4112 81.6609 45.168 82.009 44.8737 82.2948C44.5795 82.5807 44.2495 82.8025 43.8836 82.9604C43.5186 83.1155 43.1315 83.2044 42.7225 83.2272C42.3162 83.2507 41.9004 83.2054 41.475 83.0915C40.7561 82.8988 40.1638 82.5519 39.6981 82.0506C39.2324 81.5494 38.9258 80.9319 38.7783 80.1983C38.6307 79.4647 38.6761 78.6533 38.9143 77.7642C39.1525 76.8751 39.5189 76.1498 40.0135 75.5882C40.5081 75.0266 41.0824 74.6452 41.7363 74.444C42.3902 74.2427 43.0766 74.2384 43.7956 74.4311C44.2209 74.545 44.6036 74.7137 44.9438 74.9372C45.2866 75.1614 45.577 75.4334 45.8149 75.753C46.0535 76.0699 46.2287 76.4256 46.3406 76.8203C46.4532 77.2123 46.4899 77.6353 46.4505 78.0895ZM46.4155 84.2917L48.1096 77.9693L49.048 78.2208L48.7922 79.1757L48.858 79.1934C49.0571 78.9114 49.3337 78.7135 49.6877 78.5995C50.0418 78.4856 50.4081 78.4793 50.7868 78.5808C50.8582 78.5999 50.947 78.6252 51.0533 78.6566C51.1596 78.688 51.2394 78.7138 51.2928 78.734L51.0281 79.7219C50.9974 79.7048 50.9252 79.6723 50.8117 79.6242C50.7016 79.5741 50.582 79.5318 50.453 79.4972C50.1457 79.4149 49.854 79.4058 49.578 79.4701C49.3054 79.5323 49.069 79.6572 48.8688 79.8447C48.672 80.0303 48.5354 80.2657 48.4589 80.5511L47.3869 84.552L46.4155 84.2917ZM53.1513 86.2377C52.5421 86.0745 52.0526 85.7992 51.6829 85.4119C51.3166 85.0226 51.0792 84.5531 50.9706 84.0035C50.8655 83.4518 50.8997 82.8521 51.0732 82.2045C51.2467 81.5569 51.5177 81.0177 51.886 80.587C52.2578 80.1543 52.6935 79.8564 53.1931 79.6932C53.6962 79.528 54.2331 79.5219 54.8039 79.6748C55.1332 79.763 55.4437 79.905 55.7353 80.1008C56.027 80.2966 56.2714 80.5533 56.4687 80.8709C56.6667 81.1857 56.7898 81.5657 56.8382 82.011C56.8865 82.4563 56.8316 82.974 56.6735 83.5639L56.5632 83.9756L51.6897 82.6697L51.9147 81.83L55.8004 82.8712C55.8959 82.5144 55.9099 82.177 55.8422 81.8589C55.7772 81.5415 55.6361 81.2669 55.4188 81.0351C55.2042 80.8041 54.9213 80.6415 54.5701 80.5474C54.1832 80.4438 53.8227 80.4501 53.4885 80.5664C53.1579 80.6808 52.8763 80.87 52.6438 81.1342C52.4112 81.3984 52.2483 81.7047 52.1549 82.0532L52.0049 82.613C51.877 83.0905 51.8508 83.5173 51.9265 83.8934C52.0057 84.2676 52.1703 84.5808 52.4203 84.8331C52.6711 85.0826 52.9927 85.26 53.3851 85.3651C53.6403 85.4335 53.8803 85.4596 54.1053 85.4434C54.3337 85.4252 54.5428 85.3636 54.7327 85.2586C54.9234 85.1508 55.0892 84.9982 55.2304 84.8008L56.0983 85.3157C55.9142 85.6075 55.6732 85.8429 55.3752 86.0219C55.078 86.1981 54.7399 86.3075 54.3608 86.3501C53.9825 86.3899 53.5793 86.3524 53.1513 86.2377ZM59.1029 87.8501C58.7023 87.7428 58.3589 87.5699 58.0728 87.3315C57.7874 87.0903 57.5873 86.7999 57.4724 86.4603C57.3583 86.118 57.3563 85.741 57.4666 85.3294C57.5637 84.9671 57.7137 84.6926 57.9167 84.5059C58.1204 84.3163 58.3589 84.1891 58.6322 84.1241C58.9055 84.0591 59.1947 84.0336 59.4997 84.0477C59.8083 84.0598 60.1145 84.0859 60.4184 84.1262C60.8158 84.1798 61.1372 84.2262 61.3825 84.2654C61.6314 84.3027 61.8191 84.3045 61.9458 84.2708C62.0752 84.2378 62.1609 84.1431 62.2028 83.9867L62.2116 83.9538C62.3204 83.5476 62.2939 83.2023 62.1319 82.9177C61.9727 82.6339 61.6694 82.432 61.2221 82.3122C60.7583 82.1879 60.3675 82.192 60.0497 82.3245C59.7319 82.457 59.4885 82.6241 59.3198 82.826L58.486 82.2496C58.7536 81.9096 59.0532 81.6693 59.385 81.5288C59.7202 81.3862 60.0625 81.3162 60.4119 81.3186C60.7647 81.319 61.1003 81.3619 61.4186 81.4472C61.6216 81.5016 61.8483 81.5888 62.0985 81.7088C62.3522 81.8268 62.5826 81.9929 62.7899 82.2073C62.9999 82.4224 63.1472 82.7015 63.2317 83.0448C63.3162 83.388 63.2911 83.8107 63.1566 84.3128L62.0404 88.4784L61.069 88.2181L61.2984 87.362L61.249 87.3487C61.1464 87.4683 60.9973 87.5857 60.8017 87.7009C60.6061 87.8162 60.366 87.8945 60.0814 87.9358C59.7968 87.9772 59.4706 87.9487 59.1029 87.8501ZM59.4849 87.0172C59.8691 87.1201 60.2131 87.1314 60.517 87.0511C60.8236 86.9715 61.0762 86.8303 61.2746 86.6276C61.4758 86.4257 61.6116 86.193 61.6822 85.9295L61.9205 85.0404C61.8661 85.0788 61.7634 85.0998 61.6124 85.1035C61.4649 85.1051 61.2965 85.0968 61.1073 85.0784C60.9216 85.0581 60.7408 85.0361 60.5647 85.0125C60.3922 84.9868 60.252 84.9669 60.144 84.9527C59.8827 84.918 59.6324 84.9082 59.393 84.9235C59.1571 84.9368 58.9524 84.9981 58.779 85.1075C58.6091 85.2149 58.491 85.3921 58.4248 85.6391C58.3344 85.9766 58.3909 86.2652 58.5942 86.505C58.8011 86.7428 59.098 86.9135 59.4849 87.0172ZM66.1655 89.7249C65.6387 89.5837 65.2092 89.326 64.8771 88.9517C64.5458 88.5747 64.3317 88.1115 64.2348 87.562C64.1387 87.0098 64.1803 86.3989 64.3597 85.7293C64.5377 85.0653 64.8059 84.5195 65.1646 84.0921C65.5232 83.6647 65.9413 83.3723 66.4187 83.2149C66.8962 83.0576 67.4011 83.0502 67.9334 83.1928C68.3451 83.3031 68.6518 83.4589 68.8538 83.66C69.0593 83.8592 69.202 84.0621 69.2819 84.2688C69.3652 84.4735 69.4279 84.6403 69.4698 84.7692L69.5522 84.7913L70.386 81.6795L71.3574 81.9397L69.0986 90.3696L68.1601 90.1182L68.4204 89.1468L68.3052 89.1159C68.2029 89.212 68.0624 89.3302 67.8836 89.4706C67.7056 89.6082 67.4761 89.7128 67.1951 89.7846C66.9148 89.8536 66.5717 89.8337 66.1655 89.7249ZM66.5311 88.8876C66.9207 88.992 67.2772 88.9787 67.6006 88.8477C67.9246 88.7139 68.2052 88.4847 68.4422 88.16C68.6799 87.8325 68.8628 87.43 68.9907 86.9525C69.1172 86.4806 69.1592 86.0492 69.1169 85.6584C69.0752 85.2649 68.9464 84.9334 68.7305 84.6637C68.5152 84.3914 68.21 84.2022 67.8149 84.0964C67.4033 83.9861 67.0319 83.9998 66.7009 84.1376C66.3734 84.2733 66.0928 84.5026 65.8593 84.8253C65.6292 85.146 65.4547 85.5286 65.3355 85.9732C65.215 86.4232 65.174 86.8504 65.2127 87.2549C65.2548 87.6574 65.3827 88.0034 65.5963 88.293C65.8133 88.5805 66.1249 88.7787 66.5311 88.8876ZM71.0126 90.8825L72.7067 84.5601L73.6781 84.8204L71.984 91.1428L71.0126 90.8825ZM73.483 83.6387C73.2936 83.588 73.1477 83.4797 73.045 83.314C72.9451 83.149 72.9194 82.9759 72.9679 82.7948C73.0165 82.6137 73.1252 82.4767 73.2943 82.3837C73.466 82.2915 73.6466 82.2708 73.8359 82.3215C74.0253 82.3723 74.1699 82.4801 74.2698 82.6451C74.3724 82.8109 74.3995 82.9843 74.351 83.1654C74.3024 83.3465 74.1923 83.4832 74.0205 83.5754C73.8515 83.6683 73.6723 83.6894 73.483 83.6387ZM78.2069 86.0339L77.9863 86.8571L74.7099 85.9792L74.9305 85.1559L78.2069 86.0339ZM76.2913 83.8971L77.2627 84.1573L75.648 90.1834C75.5745 90.4578 75.5591 90.6743 75.602 90.8328C75.6482 90.9893 75.7283 91.1078 75.842 91.1883C75.9592 91.2668 76.0891 91.3251 76.2318 91.3634C76.3389 91.392 76.4281 91.4101 76.4997 91.4175C76.572 91.4221 76.6298 91.4259 76.6732 91.4287L76.6369 92.3542C76.5644 92.3613 76.4659 92.3613 76.3413 92.3544C76.2159 92.3502 76.0627 92.3239 75.8816 92.2754C75.6072 92.2018 75.3541 92.0708 75.1222 91.8822C74.8932 91.6944 74.7245 91.4565 74.6164 91.1687C74.5109 90.8817 74.5075 90.5543 74.606 90.1866L76.2913 83.8971ZM89.7021 89.6787L88.6813 89.4052C88.6996 89.0954 88.6631 88.8091 88.5717 88.5464C88.4831 88.2844 88.352 88.0493 88.1784 87.841C88.0083 87.6307 87.8045 87.4526 87.5672 87.3067C87.3298 87.1607 87.0712 87.0502 86.7913 86.9752C86.2809 86.8385 85.784 86.8435 85.3005 86.9905C84.8197 87.1381 84.39 87.4303 84.0112 87.867C83.6352 88.3045 83.3494 88.8882 83.1538 89.6181C82.9582 90.3481 82.9139 90.9965 83.0208 91.5634C83.1304 92.131 83.3565 92.5989 83.699 92.9671C84.0443 93.3361 84.4721 93.589 84.9825 93.7257C85.2624 93.8007 85.5416 93.8344 85.8202 93.8267C86.0987 93.8189 86.3638 93.7679 86.6156 93.6736C86.8708 93.5773 87.1023 93.4379 87.31 93.2553C87.5212 93.0707 87.696 92.8411 87.8343 92.5664L88.8551 92.8399C88.6628 93.2501 88.4196 93.5982 88.1253 93.884C87.8311 94.1699 87.5011 94.3918 87.1352 94.5496C86.7701 94.7047 86.3831 94.7937 85.9741 94.8164C85.5678 94.8399 85.152 94.7947 84.7266 94.6807C84.0077 94.488 83.4154 94.1411 82.9497 93.6399C82.484 93.1386 82.1774 92.5212 82.0298 91.7875C81.8823 91.0539 81.9277 90.2425 82.1659 89.3534C82.4041 88.4643 82.7705 87.739 83.2651 87.1774C83.7597 86.6159 84.334 86.2344 84.9879 86.0332C85.6418 85.8319 86.3282 85.8276 87.0472 86.0203C87.4725 86.1342 87.8552 86.303 88.1953 86.5265C88.5382 86.7507 88.8286 87.0226 89.0665 87.3422C89.3051 87.6591 89.4803 88.0149 89.5922 88.4095C89.7048 88.8015 89.7415 89.2245 89.7021 89.6787ZM89.6671 95.8809L91.3611 89.5585L92.2996 89.81L92.0438 90.7649L92.1096 90.7826C92.3087 90.5006 92.5853 90.3027 92.9393 90.1887C93.2934 90.0748 93.6597 90.0685 94.0384 90.17C94.1098 90.1891 94.1986 90.2144 94.3049 90.2458C94.4112 90.2772 94.491 90.303 94.5444 90.3232L94.2797 91.3111C94.249 91.2941 94.1768 91.2615 94.0633 91.2134C93.9531 91.1633 93.8336 91.121 93.7046 91.0864C93.3973 91.0041 93.1056 90.995 92.8296 91.0593C92.557 91.1216 92.3206 91.2465 92.1204 91.434C91.9236 91.6195 91.787 91.8549 91.7105 92.1403L90.6385 96.1412L89.6671 95.8809ZM95.8006 97.6832C95.3999 97.5759 95.0566 97.403 94.7704 97.1646C94.4851 96.9234 94.2849 96.633 94.1701 96.2934C94.0559 95.9511 94.054 95.5741 94.1643 95.1625C94.2613 94.8002 94.4114 94.5257 94.6143 94.339C94.8181 94.1494 95.0566 94.0222 95.3299 93.9572C95.6032 93.8922 95.8923 93.8667 96.1974 93.8808C96.5059 93.8929 96.8121 93.919 97.116 93.9593C97.5134 94.0129 97.8348 94.0593 98.0802 94.0985C98.329 94.1358 98.5168 94.1376 98.6434 94.1039C98.7729 94.0709 98.8585 93.9762 98.9004 93.8198L98.9093 93.7869C99.0181 93.3807 98.9915 93.0354 98.8295 92.7508C98.6703 92.467 98.367 92.2651 97.9197 92.1453C97.456 92.021 97.0652 92.0251 96.7473 92.1576C96.4295 92.2901 96.1862 92.4572 96.0174 92.6591L95.1836 92.0827C95.4512 91.7427 95.7509 91.5024 96.0826 91.3619C96.4179 91.2193 96.7602 91.1493 97.1095 91.1517C97.4623 91.1521 97.7979 91.195 98.1162 91.2803C98.3193 91.3347 98.5459 91.4219 98.7961 91.5419C99.0498 91.6599 99.2803 91.826 99.4875 92.0404C99.6975 92.2555 99.8448 92.5346 99.9293 92.8779C100.014 93.2211 99.9888 93.6438 99.8542 94.146L98.738 98.3115L97.7666 98.0512L97.996 97.1951L97.9466 97.1818C97.844 97.3014 97.6949 97.4188 97.4993 97.534C97.3038 97.6493 97.0637 97.7276 96.7791 97.7689C96.4944 97.8103 96.1683 97.7818 95.8006 97.6832ZM96.1826 96.8503C96.5667 96.9532 96.9108 96.9645 97.2146 96.8842C97.5213 96.8046 97.7738 96.6634 97.9722 96.4607C98.1734 96.2588 98.3093 96.0261 98.3799 95.7626L98.6181 94.8735C98.5637 94.9119 98.461 94.9329 98.31 94.9366C98.1625 94.9382 97.9942 94.9299 97.805 94.9115C97.6193 94.8912 97.4384 94.8692 97.2624 94.8456C97.0898 94.8199 96.9496 94.8 96.8416 94.7858C96.5804 94.7511 96.33 94.7413 96.0906 94.7566C95.8547 94.7699 95.6501 94.8312 95.4766 94.9406C95.3067 95.048 95.1886 95.2252 95.1225 95.4722C95.032 95.8097 95.0885 96.0983 95.2919 96.3381C95.4988 96.5759 95.7956 96.7466 96.1826 96.8503ZM102.863 99.558C102.336 99.4168 101.907 99.1591 101.575 98.7848C101.243 98.4078 101.029 97.9446 100.932 97.3951C100.836 96.8429 100.878 96.232 101.057 95.5624C101.235 94.8984 101.504 94.3526 101.862 93.9252C102.221 93.4978 102.639 93.2054 103.116 93.048C103.594 92.8907 104.099 92.8833 104.631 93.0259C105.043 93.1362 105.349 93.292 105.551 93.4931C105.757 93.6923 105.9 93.8952 105.979 94.102C106.063 94.3066 106.126 94.4734 106.167 94.6023L106.25 94.6244L107.084 91.5126L108.055 91.7728L105.796 100.203L104.858 99.9513L105.118 98.9799L105.003 98.949C104.901 99.0451 104.76 99.1633 104.581 99.3037C104.403 99.4413 104.174 99.5459 103.893 99.6177C103.612 99.6867 103.269 99.6668 102.863 99.558ZM103.229 98.7207C103.618 98.8251 103.975 98.8118 104.298 98.6808C104.622 98.547 104.903 98.3178 105.14 97.9931C105.378 97.6656 105.56 97.2631 105.688 96.7857C105.815 96.3137 105.857 95.8823 105.815 95.4915C105.773 95.098 105.644 94.7665 105.428 94.4968C105.213 94.2245 104.908 94.0353 104.513 93.9295C104.101 93.8192 103.73 93.8329 103.399 93.9707C103.071 94.1064 102.79 94.3357 102.557 94.6584C102.327 94.9791 102.152 95.3617 102.033 95.8063C101.913 96.2563 101.872 96.6835 101.91 97.088C101.952 97.4905 102.08 97.8365 102.294 98.1261C102.511 98.4137 102.823 98.6118 103.229 98.7207Z" fill="#E6E6E6"/>
<circle cx="35.1408" cy="96.8003" r="2" transform="rotate(15 35.1408 96.8003)" fill="#D9D9D9"/>
<circle cx="45.7697" cy="99.6474" r="2" transform="rotate(15 45.7697 99.6474)" fill="#D9D9D9"/>
<circle cx="56.3947" cy="102.494" r="2" transform="rotate(15 56.3947 102.494)" fill="#D9D9D9"/>
<circle cx="67.0158" cy="105.341" r="2" transform="rotate(15 67.0158 105.341)" fill="#D9D9D9"/>
<path d="M84.6337 105.168L82.375 113.598L81.3542 113.324L83.3262 105.964L83.2768 105.951L80.8525 106.766L81.1305 105.729L83.6129 104.894L84.6337 105.168ZM84.7994 114.247L84.9979 113.506L88.5966 111.206C89.0187 110.937 89.3707 110.699 89.6526 110.492C89.9352 110.282 90.1586 110.075 90.3226 109.869C90.4901 109.66 90.6084 109.427 90.6775 109.17C90.7569 108.873 90.7544 108.597 90.6697 108.342C90.5879 108.088 90.4406 107.869 90.228 107.686C90.0154 107.502 89.7568 107.37 89.4522 107.288C89.1284 107.202 88.8278 107.193 88.5503 107.263C88.2762 107.331 88.0414 107.466 87.8457 107.67C87.6527 107.874 87.5133 108.136 87.4272 108.457L86.4558 108.197C86.5882 107.703 86.8182 107.3 87.146 106.988C87.4737 106.676 87.8618 106.468 88.3101 106.365C88.7611 106.262 89.2322 106.276 89.7234 106.408C90.2173 106.54 90.6271 106.762 90.9526 107.073C91.2782 107.383 91.5019 107.745 91.6239 108.157C91.7458 108.569 91.7487 108.992 91.6325 109.425C91.5494 109.735 91.4119 110.024 91.22 110.29C91.0315 110.554 90.7516 110.831 90.3801 111.119C90.0121 111.406 89.5172 111.744 88.8952 112.133L86.4592 113.651L86.4415 113.717L90.3601 114.767L90.1175 115.672L84.7994 114.247ZM94.6349 117.006C94.0916 116.861 93.6323 116.638 93.2569 116.337C92.8843 116.037 92.6177 115.688 92.4569 115.289C92.2997 114.888 92.2692 114.464 92.3657 114.016L93.4029 114.294C93.3521 114.571 93.3825 114.831 93.4942 115.073C93.6067 115.312 93.7817 115.52 94.0192 115.699C94.2567 115.877 94.5373 116.01 94.8611 116.096C95.2233 116.193 95.5613 116.216 95.875 116.165C96.1888 116.114 96.4553 115.997 96.6748 115.815C96.8942 115.632 97.0437 115.393 97.1231 115.097C97.2062 114.786 97.2025 114.493 97.1121 114.216C97.0224 113.936 96.8473 113.689 96.587 113.475C96.3267 113.261 95.9825 113.097 95.5544 112.982L94.8793 112.801L95.122 111.896L95.797 112.077C96.1318 112.166 96.4416 112.185 96.7264 112.131C97.014 112.079 97.2585 111.962 97.46 111.781C97.6643 111.6 97.8061 111.362 97.8855 111.066C97.962 110.78 97.9654 110.515 97.8958 110.27C97.8262 110.025 97.692 109.812 97.4931 109.633C97.2969 109.453 97.0438 109.322 96.7337 109.239C96.4428 109.161 96.1541 109.141 95.8675 109.179C95.5843 109.215 95.335 109.312 95.1194 109.469C94.9046 109.623 94.7528 109.838 94.6641 110.114L93.6762 109.849C93.811 109.412 94.0478 109.061 94.3865 108.796C94.7259 108.528 95.1223 108.355 95.5757 108.276C96.0318 108.198 96.5027 108.225 96.9884 108.355C97.5098 108.494 97.9288 108.72 98.2454 109.031C98.5627 109.34 98.7755 109.692 98.884 110.089C98.9924 110.486 98.9933 110.883 98.8866 111.281C98.7594 111.756 98.5261 112.127 98.1867 112.395C97.85 112.663 97.4518 112.805 96.9919 112.82L96.9742 112.886C97.483 113.117 97.8381 113.454 98.0394 113.899C98.2415 114.342 98.2708 114.831 98.1274 115.366C98.0046 115.824 97.7695 116.202 97.422 116.5C97.078 116.796 96.664 116.991 96.18 117.085C95.696 117.179 95.181 117.153 94.6349 117.006ZM99.4634 116.324L99.6884 115.484L104.963 110.615L105.573 110.778L105.224 112.079L104.813 111.969L100.827 115.648L100.809 115.714L105.798 117.05L105.555 117.956L99.4634 116.324ZM102.968 119.116L103.5 117.132L103.605 116.741L105.227 110.686L106.198 110.946L103.94 119.376L102.968 119.116Z" fill="#F0F0EF"/>
<path d="M109.618 181.067C108.998 180.901 108.515 180.591 108.169 180.136C107.824 179.679 107.623 179.097 107.565 178.391C107.508 177.681 107.602 176.868 107.848 175.952C108.092 175.041 108.416 174.294 108.819 173.711C109.226 173.126 109.693 172.721 110.22 172.498C110.751 172.273 111.324 172.242 111.939 172.407C112.554 172.572 113.033 172.884 113.377 173.344C113.725 173.802 113.928 174.385 113.985 175.095C114.045 175.802 113.953 176.611 113.709 177.522C113.464 178.439 113.139 179.19 112.735 179.776C112.332 180.359 111.866 180.762 111.339 180.986C110.812 181.206 110.238 181.233 109.618 181.067ZM109.861 180.162C110.476 180.326 111.033 180.158 111.532 179.656C112.031 179.155 112.427 178.355 112.721 177.258C112.917 176.528 113.005 175.885 112.986 175.33C112.97 174.776 112.853 174.325 112.634 173.978C112.418 173.632 112.107 173.405 111.701 173.296C111.091 173.133 110.535 173.306 110.031 173.815C109.527 174.321 109.129 175.122 108.836 176.217C108.64 176.946 108.551 177.587 108.568 178.139C108.585 178.69 108.702 179.138 108.918 179.481C109.138 179.825 109.452 180.052 109.861 180.162ZM119.117 174.33C119.462 174.426 119.791 174.584 120.102 174.806C120.413 175.028 120.671 175.326 120.876 175.702C121.082 176.075 121.203 176.541 121.238 177.1C121.274 177.66 121.188 178.326 120.981 179.1C120.78 179.849 120.53 180.496 120.232 181.039C119.936 181.581 119.603 182.015 119.23 182.341C118.86 182.669 118.458 182.884 118.024 182.989C117.593 183.094 117.14 183.083 116.665 182.956C116.193 182.829 115.797 182.623 115.477 182.337C115.16 182.049 114.928 181.706 114.782 181.308C114.639 180.908 114.594 180.477 114.647 180.015L115.652 180.284C115.639 180.695 115.733 181.063 115.934 181.388C116.139 181.71 116.463 181.931 116.908 182.05C117.558 182.224 118.147 182.078 118.676 181.61C119.206 181.144 119.611 180.392 119.889 179.355L119.823 179.337C119.608 179.526 119.372 179.676 119.116 179.787C118.859 179.898 118.59 179.964 118.308 179.985C118.026 180.007 117.739 179.979 117.448 179.901C116.965 179.771 116.554 179.533 116.215 179.186C115.879 178.838 115.646 178.421 115.517 177.936C115.392 177.45 115.402 176.935 115.548 176.391C115.686 175.876 115.928 175.434 116.273 175.068C116.621 174.7 117.04 174.444 117.528 174.302C118.019 174.16 118.549 174.169 119.117 174.33ZM118.875 175.236C118.529 175.143 118.194 175.146 117.871 175.245C117.551 175.342 117.271 175.514 117.031 175.761C116.795 176.007 116.63 176.305 116.535 176.656C116.441 177.007 116.433 177.348 116.509 177.677C116.589 178.004 116.741 178.289 116.964 178.531C117.191 178.771 117.477 178.938 117.823 179.03C118.083 179.1 118.34 179.115 118.592 179.073C118.845 179.029 119.079 178.941 119.294 178.807C119.513 178.672 119.701 178.503 119.858 178.301C120.016 178.096 120.128 177.869 120.195 177.619C120.283 177.29 120.286 176.96 120.204 176.629C120.125 176.299 119.971 176.008 119.742 175.755C119.515 175.503 119.226 175.33 118.875 175.236ZM126.738 176.072L121.317 185.437L120.428 185.199L125.849 175.834L126.738 176.072ZM125.509 185.202L125.707 184.461L129.306 182.16C129.728 181.891 130.08 181.653 130.362 181.446C130.645 181.237 130.868 181.029 131.032 180.823C131.2 180.615 131.318 180.382 131.387 180.124C131.466 179.827 131.464 179.552 131.379 179.297C131.297 179.042 131.15 178.824 130.937 178.64C130.725 178.457 130.466 178.324 130.162 178.243C129.838 178.156 129.537 178.147 129.26 178.217C128.986 178.285 128.751 178.42 128.555 178.624C128.362 178.828 128.223 179.091 128.137 179.412L127.165 179.151C127.298 178.658 127.528 178.254 127.855 177.942C128.183 177.63 128.571 177.422 129.019 177.319C129.47 177.216 129.942 177.231 130.433 177.362C130.927 177.495 131.336 177.716 131.662 178.027C131.988 178.338 132.211 178.699 132.333 179.111C132.455 179.523 132.458 179.946 132.342 180.38C132.259 180.69 132.121 180.978 131.929 181.244C131.741 181.508 131.461 181.785 131.09 182.074C130.722 182.36 130.227 182.698 129.605 183.087L127.169 184.605L127.151 184.671L131.069 185.721L130.827 186.627L125.509 185.202ZM135.13 187.903C134.647 187.774 134.238 187.561 133.903 187.265C133.567 186.97 133.328 186.623 133.184 186.226C133.041 185.829 133.015 185.413 133.108 184.979L134.096 185.244C134.032 185.635 134.12 185.997 134.361 186.329C134.605 186.659 134.942 186.882 135.373 186.998C135.719 187.09 136.048 187.092 136.36 187.002C136.675 186.913 136.947 186.747 137.177 186.506C137.41 186.263 137.574 185.961 137.671 185.602C137.769 185.234 137.776 184.884 137.691 184.553C137.61 184.219 137.452 183.931 137.217 183.689C136.982 183.446 136.685 183.276 136.326 183.177C136.069 183.105 135.793 183.074 135.5 183.083C135.207 183.09 134.956 183.133 134.746 183.212L133.822 182.841L135.444 178.829L139.824 180.002L139.581 180.908L136.058 179.964L135.095 182.37L135.145 182.384C135.354 182.293 135.602 182.237 135.886 182.216C136.171 182.196 136.455 182.223 136.738 182.299C137.254 182.437 137.68 182.684 138.018 183.039C138.358 183.392 138.587 183.812 138.703 184.299C138.823 184.787 138.809 185.304 138.663 185.85C138.519 186.388 138.269 186.836 137.915 187.193C137.563 187.549 137.145 187.793 136.66 187.925C136.175 188.054 135.665 188.047 135.13 187.903Z" fill="#F8F8FA"/>
<rect opacity="0.2" x="21.3047" y="140.715" width="34" height="22" rx="4" transform="rotate(15 21.3047 140.715)" fill="white"/>
</g>
<defs>
<clipPath id="clip0_178_402">
<rect x="48.6562" y="-0.000244141" width="146" height="188" rx="10" transform="rotate(15 48.6562 -0.000244141)" fill="white"/>
</clipPath>
</defs>
</svg>
